<svg xmlns="http://www.w3.org/2000/svg" xmlns:xlink="http://www.w3.org/1999/xlink" viewBox="0 0 500 500" width="500" height="500" preserveAspectRatio="xMidYMid meet" style="width: 100%; height: 100%; transform: translate3d(0px, 0px, 0px); content-visibility: visible;"><defs><clipPath id="__lottie_element_2"><rect width="500" height="500" x="0" y="0"></rect></clipPath><linearGradient id="__lottie_element_8" spreadMethod="pad" gradientUnits="userSpaceOnUse" x1="-26.30299949645996" y1="27.163000106811523" x2="41.01100158691406" y2="-61.79800033569336"><stop offset="0%" stop-color="rgb(172,142,255)"></stop><stop offset="33%" stop-color="rgb(143,102,255)"></stop><stop offset="55%" stop-color="rgb(165,141,229)"></stop><stop offset="77%" stop-color="rgb(203,185,255)"></stop><stop offset="100%" stop-color="rgb(175,147,255)"></stop></linearGradient><linearGradient id="__lottie_element_9" spreadMethod="pad" gradientUnits="userSpaceOnUse" x1="-13.5" y1="7.5" x2="33" y2="-45"><stop offset="0%" stop-color="rgb(172,142,255)"></stop><stop offset="60%" stop-color="rgb(143,102,255)"></stop><stop offset="100%" stop-color="rgb(186,160,255)"></stop></linearGradient><linearGradient id="__lottie_element_12" spreadMethod="pad" gradientUnits="userSpaceOnUse" x1="4.25" y1="-2.75" x2="93.5" y2="60"><stop offset="0%" stop-color="rgb(143,102,255)"></stop><stop offset="60%" stop-color="rgb(157,114,219)"></stop><stop offset="100%" stop-color="rgb(186,160,255)"></stop></linearGradient><linearGradient id="__lottie_element_17" spreadMethod="pad" gradientUnits="userSpaceOnUse" x1="-14" y1="15.5" x2="13.5" y2="-14"><stop offset="0%" stop-color="rgb(143,102,255)"></stop><stop offset="60%" stop-color="rgb(157,114,219)"></stop><stop offset="100%" stop-color="rgb(186,160,255)"></stop></linearGradient><linearGradient id="__lottie_element_18" spreadMethod="pad" gradientUnits="userSpaceOnUse" x1="-46.5" y1="55" x2="55" y2="-42"><stop offset="0%" stop-color="rgb(143,102,255)"></stop><stop offset="60%" stop-color="rgb(157,114,219)"></stop><stop offset="100%" stop-color="rgb(186,160,255)"></stop></linearGradient><linearGradient id="__lottie_element_21" spreadMethod="pad" gradientUnits="userSpaceOnUse" x1="-9.25" y1="1.75" x2="5" y2="-1.25"><stop offset="0%" stop-color="rgb(143,102,255)"></stop><stop offset="60%" stop-color="rgb(157,114,219)"></stop><stop offset="100%" stop-color="rgb(186,160,255)"></stop></linearGradient><linearGradient id="__lottie_element_22" spreadMethod="pad" gradientUnits="userSpaceOnUse" x1="-14.187999725341797" y1="6.686999797821045" x2="5.688000202178955" y2="-2.25"><stop offset="0%" stop-color="rgb(143,102,255)"></stop><stop offset="60%" stop-color="rgb(157,114,219)"></stop><stop offset="100%" stop-color="rgb(186,160,255)"></stop></linearGradient><linearGradient id="__lottie_element_28" spreadMethod="pad" gradientUnits="userSpaceOnUse" x1="-1" y1="21" x2="-0.5" y2="-18.5"><stop offset="0%" stop-color="rgb(3,13,20)" stop-opacity="1"></stop><stop offset="60%" stop-color="rgb(7,30,45)" stop-opacity="0.9950000047683716"></stop><stop offset="100%" stop-color="rgb(85,85,85)" stop-opacity="1"></stop></linearGradient><radialGradient id="__lottie_element_32" spreadMethod="pad" gradientUnits="userSpaceOnUse" cx="0" cy="0" r="17.251811499086116" fx="0" fy="0"><stop offset="0%" stop-color="rgb(50,128,252)" stop-opacity="1"></stop><stop offset="60%" stop-color="rgb(25,64,126)" stop-opacity="0.75"></stop><stop offset="100%" stop-color="rgb(0,0,0)" stop-opacity="0.5"></stop></radialGradient><radialGradient id="__lottie_element_36" spreadMethod="pad" gradientUnits="userSpaceOnUse" cx="0" cy="0" r="17.251811499086116" fx="0" fy="0"><stop offset="0%" stop-color="rgb(50,128,252)" stop-opacity="1"></stop><stop offset="60%" stop-color="rgb(25,64,126)" stop-opacity="0.75"></stop><stop offset="100%" stop-color="rgb(0,0,0)" stop-opacity="0.5"></stop></radialGradient><clipPath id="__lottie_element_38"><path fill="#ffffff" clip-rule="nonzero" d=" M27.5,22.25 C27.5,27.773000717163086 23.023000717163086,32.25 17.5,32.25 C11.97700023651123,32.25 7.5,27.773000717163086 7.5,22.25 C7.5,16.726999282836914 11.97700023651123,12.25 17.5,12.25 C23.023000717163086,12.25 27.5,16.726999282836914 27.5,22.25" fill-opacity="1"></path><path fill="#ffffff" clip-rule="nonzero" d=" M74.5,22.256999969482422 C74.5,27.780000686645508 70.02300262451172,32.25699996948242 64.5,32.25699996948242 C58.97700119018555,32.25699996948242 54.5,27.780000686645508 54.5,22.256999969482422 C54.5,16.733999252319336 58.97700119018555,12.256999969482422 64.5,12.256999969482422 C70.02300262451172,12.256999969482422 74.5,16.733999252319336 74.5,22.256999969482422" fill-opacity="1"></path></clipPath><linearGradient id="__lottie_element_43" spreadMethod="pad" gradientUnits="userSpaceOnUse" x1="-2.375" y1="0.625" x2="23.5" y2="-28.25"><stop offset="0%" stop-color="rgb(172,142,255)"></stop><stop offset="60%" stop-color="rgb(143,102,255)"></stop><stop offset="100%" stop-color="rgb(186,160,255)"></stop></linearGradient><linearGradient id="__lottie_element_47" spreadMethod="pad" gradientUnits="userSpaceOnUse" x1="23" y1="13" x2="-30" y2="-15"><stop offset="0%" stop-color="rgb(172,142,255)"></stop><stop offset="60%" stop-color="rgb(143,102,255)"></stop><stop offset="100%" stop-color="rgb(186,160,255)"></stop></linearGradient><linearGradient id="__lottie_element_48" spreadMethod="pad" gradientUnits="userSpaceOnUse" x1="-11.5" y1="7" x2="22" y2="-12"><stop offset="0%" stop-color="rgb(172,142,255)"></stop><stop offset="60%" stop-color="rgb(143,102,255)"></stop><stop offset="100%" stop-color="rgb(186,160,255)"></stop></linearGradient><radialGradient id="__lottie_element_52" spreadMethod="pad" gradientUnits="userSpaceOnUse" cx="0" cy="0" r="19.38800048828125" fx="0" fy="0"><stop offset="0%" stop-color="rgb(199,186,214)" stop-opacity="1"></stop><stop offset="60%" stop-color="rgb(222,235,235)" stop-opacity="0.5"></stop><stop offset="100%" stop-color="rgb(255,255,255)" stop-opacity="0"></stop></radialGradient><linearGradient id="__lottie_element_56" spreadMethod="pad" gradientUnits="userSpaceOnUse" x1="-6.5" y1="-12.5" x2="22" y2="22"><stop offset="0%" stop-color="rgb(187,169,235)"></stop><stop offset="60%" stop-color="rgb(207,196,245)"></stop><stop offset="100%" stop-color="rgb(221,213,244)"></stop></linearGradient><linearGradient id="__lottie_element_57" spreadMethod="pad" gradientUnits="userSpaceOnUse" x1="-79.5" y1="0" x2="81" y2="0"><stop offset="0%" stop-color="rgb(220,211,244)" stop-opacity="1"></stop><stop offset="30%" stop-color="rgb(235,225,247)" stop-opacity="1"></stop><stop offset="50%" stop-color="rgb(240,235,247)" stop-opacity="0.9900000095367432"></stop><stop offset="75%" stop-color="rgb(229,221,248)" stop-opacity="1"></stop><stop offset="100%" stop-color="rgb(220,211,244)" stop-opacity="1"></stop></linearGradient><linearGradient id="__lottie_element_58" spreadMethod="pad" gradientUnits="userSpaceOnUse" x1="-6" y1="1.5" x2="117.5" y2="-28"><stop offset="0%" stop-color="rgb(172,142,255)"></stop><stop offset="60%" stop-color="rgb(143,102,255)"></stop><stop offset="100%" stop-color="rgb(186,160,255)"></stop></linearGradient><linearGradient id="__lottie_element_59" spreadMethod="pad" gradientUnits="userSpaceOnUse" x1="-32.5" y1="8.5" x2="90.5" y2="-23.5"><stop offset="0%" stop-color="rgb(172,142,255)"></stop><stop offset="60%" stop-color="rgb(143,102,255)"></stop><stop offset="100%" stop-color="rgb(186,160,255)"></stop></linearGradient><linearGradient id="__lottie_element_60" spreadMethod="pad" gradientUnits="userSpaceOnUse" x1="-49.5" y1="12.5" x2="73.5" y2="-17"><stop offset="0%" stop-color="rgb(172,142,255)"></stop><stop offset="60%" stop-color="rgb(143,102,255)"></stop><stop offset="100%" stop-color="rgb(186,160,255)"></stop></linearGradient><linearGradient id="__lottie_element_61" spreadMethod="pad" gradientUnits="userSpaceOnUse" x1="-61.5" y1="14.5" x2="60" y2="-18.5"><stop offset="0%" stop-color="rgb(172,142,255)"></stop><stop offset="60%" stop-color="rgb(143,102,255)"></stop><stop offset="100%" stop-color="rgb(186,160,255)"></stop></linearGradient><linearGradient id="__lottie_element_62" spreadMethod="pad" gradientUnits="userSpaceOnUse" x1="-81" y1="8" x2="43.5" y2="-18.5"><stop offset="0%" stop-color="rgb(172,142,255)"></stop><stop offset="60%" stop-color="rgb(143,102,255)"></stop><stop offset="100%" stop-color="rgb(186,160,255)"></stop></linearGradient><linearGradient id="__lottie_element_63" spreadMethod="pad" gradientUnits="userSpaceOnUse" x1="-101" y1="15.5" x2="21.5" y2="-17"><stop offset="0%" stop-color="rgb(172,142,255)"></stop><stop offset="60%" stop-color="rgb(143,102,255)"></stop><stop offset="100%" stop-color="rgb(186,160,255)"></stop></linearGradient></defs><g clip-path="url(#__lottie_element_2)"><g transform="matrix(0.9945219159126282,0.10452846437692642,-0.10452846437692642,0.9945219159126282,180.60336303710938,273.7615966796875)" opacity="1" style="display: block;"><g opacity="1" transform="matrix(1,0,0,1,28.354999542236328,19.170000076293945)"><path fill="url(#__lottie_element_12)" fill-opacity="1" d=" M-7.327000141143799,-16.21299934387207 C15.6899995803833,-9.907999992370605 21.12700080871582,-11.673999786376953 25.229000091552734,-5.502999782562256 C25.700000762939453,-4.795000076293945 28.104999542236328,-1.1759999990463257 27.624000549316406,3.4709999561309814 C27.23900032043457,7.172999858856201 25.17799949645996,10.029000282287598 23.8799991607666,11.28600025177002 C15.994999885559082,18.91900062561035 -5.702000141143799,9.581000328063965 -18.128000259399414,-0.6320000290870667 C-20.836999893188477,-2.8589999675750732 -28.106000900268555,-8.831999778747559 -26.642000198364258,-13.074999809265137 C-26.04199981689453,-14.814000129699707 -24.179000854492188,-15.677000045776367 -22.841999053955078,-16.274999618530273 C-16.93000030517578,-18.920000076293945 -10.79800033569336,-17.163000106811523 -7.327000141143799,-16.21299934387207z"></path></g></g><g transform="matrix(1,0,0,1,260.7659912109375,118.97714233398438)" opacity="1" style="display: block;"><g opacity="1" transform="matrix(1,0,0,1,6.5269999504089355,24.743000030517578)"><path fill="url(#__lottie_element_21)" fill-opacity="1" d=" M2.4489998817443848,16.073999404907227 C2.4489998817443848,16.073999404907227 -2.4489998817443848,16.073999404907227 -2.4489998817443848,16.073999404907227 C-2.4489998817443848,16.073999404907227 -2.4489998817443848,-16.073999404907227 -2.4489998817443848,-16.073999404907227 C-2.4489998817443848,-16.073999404907227 2.4489998817443848,-16.073999404907227 2.4489998817443848,-16.073999404907227 C2.4489998817443848,-16.073999404907227 2.4489998817443848,16.073999404907227 2.4489998817443848,16.073999404907227z"></path></g><g opacity="1" transform="matrix(1,0,0,1,6.5269999504089355,6.526000022888184)"><path fill="url(#__lottie_element_22)" fill-opacity="1" d=" M6.2769999504089355,0 C6.2769999504089355,3.4660000801086426 3.4660000801086426,6.276000022888184 0.0010000000474974513,6.276000022888184 C-3.4660000801086426,6.276000022888184 -6.2769999504089355,3.4660000801086426 -6.2769999504089355,0 C-6.2769999504089355,-3.4660000801086426 -3.4660000801086426,-6.276000022888184 0.0010000000474974513,-6.276000022888184 C3.4660000801086426,-6.276000022888184 6.2769999504089355,-3.4660000801086426 6.2769999504089355,0z"></path></g><g opacity="1" transform="matrix(1,0,0,1,8.97599983215332,4.077000141143799)"><path fill="rgb(255,255,255)" fill-opacity="1" d=" M1.9140000343322754,0 C1.9140000343322754,1.0570000410079956 1.0570000410079956,1.9140000343322754 0,1.9140000343322754 C-1.0570000410079956,1.9140000343322754 -1.9140000343322754,1.0570000410079956 -1.9140000343322754,0 C-1.9140000343322754,-1.0570000410079956 -1.0570000410079956,-1.9140000343322754 0,-1.9140000343322754 C1.0570000410079956,-1.9140000343322754 1.9140000343322754,-1.0570000410079956 1.9140000343322754,0z"></path></g></g><g transform="matrix(1,0,0,1,190.34701538085938,156.1761474609375)" opacity="1" style="display: block;"><g opacity="1" transform="matrix(1,0,0,1,76.9469985961914,10.812999725341797)"><path fill="url(#__lottie_element_17)" fill-opacity="1" d=" M16.91699981689453,10.562999725341797 C16.91699981689453,10.562999725341797 -16.91699981689453,10.562999725341797 -16.91699981689453,10.562999725341797 C-19.41200065612793,10.562999725341797 -21.43400001525879,8.541000366210938 -21.43400001525879,6.046000003814697 C-21.43400001525879,6.046000003814697 -21.43400001525879,-6.046000003814697 -21.43400001525879,-6.046000003814697 C-21.43400001525879,-8.541000366210938 -19.41200065612793,-10.562999725341797 -16.91699981689453,-10.562999725341797 C-16.91699981689453,-10.562999725341797 16.91699981689453,-10.562999725341797 16.91699981689453,-10.562999725341797 C19.410999298095703,-10.562999725341797 21.43400001525879,-8.541000366210938 21.43400001525879,-6.046000003814697 C21.43400001525879,-6.046000003814697 21.43400001525879,6.046000003814697 21.43400001525879,6.046000003814697 C21.43400001525879,8.541000366210938 19.410999298095703,10.562999725341797 16.91699981689453,10.562999725341797z"></path></g><g opacity="1" transform="matrix(1,0,0,1,76.94599914550781,68.68000030517578)"><path fill="url(#__lottie_element_18)" fill-opacity="1" d=" M76.6969985961914,22.96299934387207 C76.6969985961914,42.49300003051758 60.862998962402344,58.32600021362305 41.33300018310547,58.32600021362305 C41.33300018310547,58.32600021362305 -41.33300018310547,58.32600021362305 -41.33300018310547,58.32600021362305 C-60.78300094604492,58.32600021362305 -76.6969985961914,42.4119987487793 -76.6969985961914,22.96299934387207 C-76.6969985961914,22.96299934387207 -76.6969985961914,4.5920000076293945 -76.6969985961914,4.5920000076293945 C-76.6969985961914,-30.01300048828125 -48.38399887084961,-58.32600021362305 -13.779000282287598,-58.32600021362305 C-13.779000282287598,-58.32600021362305 13.777000427246094,-58.32600021362305 13.777000427246094,-58.32600021362305 C48.382999420166016,-58.32600021362305 76.6969985961914,-30.01300048828125 76.6969985961914,4.5920000076293945 C76.6969985961914,4.5920000076293945 76.6969985961914,22.96299934387207 76.6969985961914,22.96299934387207z"></path></g><g opacity="1" transform="matrix(1,0,0,1,121.81800079345703,27.822999954223633)"><path fill="rgb(255,255,255)" fill-opacity="1" d=" M9.17300033569336,2.6559998989105225 C9.255999565124512,5.586999893188477 6.86299991607666,9.090999603271484 4.122000217437744,9.390000343322754 C1.5540000200271606,9.670999526977539 -0.4970000088214874,7.047999858856201 -2.6110000610351562,4.3420000076293945 C-4.696000099182129,1.6749999523162842 -9.255000114440918,-5.177000045776367 -7.439000129699707,-7.114999771118164 C-5.045000076293945,-9.67199993133545 8.97700023651123,-4.257999897003174 9.17300033569336,2.6559998989105225z"></path></g><g opacity="1" transform="matrix(1,0,0,1,107.52899932861328,17.128000259399414)"><path fill="rgb(255,255,255)" fill-opacity="1" d=" M2.181999921798706,0 C2.181999921798706,1.2050000429153442 1.2039999961853027,2.181999921798706 -0.0010000000474974513,2.181999921798706 C-1.2059999704360962,2.181999921798706 -2.181999921798706,1.2050000429153442 -2.181999921798706,0 C-2.181999921798706,-1.2050000429153442 -1.2059999704360962,-2.181999921798706 -0.0010000000474974513,-2.181999921798706 C1.2039999961853027,-2.181999921798706 2.181999921798706,-1.2050000429153442 2.181999921798706,0z"></path></g><g opacity="1" transform="matrix(1,0,0,1,87.65699768066406,3.4049999713897705)"><path fill="rgb(255,255,255)" fill-opacity="1" d=" M9.482999801635742,3.0989999771118164 C9.32699966430664,3.121000051498413 9.22700023651123,2.2039999961853027 8.463000297546387,0.7860000133514404 C8.463000297546387,0.7860000133514404 8.105999946594238,0.12399999797344208 7.697999954223633,-0.43799999356269836 C6.381999969482422,-2.247999906539917 1.9249999523162842,-2.2079999446868896 1.5750000476837158,-2.2049999237060547 C-5.36899995803833,-2.1440000534057617 -9.831000328063965,-2.5840001106262207 -9.829999923706055,-2.5429999828338623 C-9.829000473022461,-2.506999969482422 -6.573999881744385,-2.5739998817443848 -4.188000202178955,-2.621999979019165 C2.5439999103546143,-2.759000062942505 6.552999973297119,-3.121000051498413 8.272000312805176,-1.3179999589920044 C8.984999656677246,-0.5699999928474426 9.343000411987305,0.40400001406669617 9.343000411987305,0.40400001406669617 C9.831000328063965,1.7259999513626099 9.668999671936035,3.072000026702881 9.482999801635742,3.0989999771118164z"></path></g></g><g transform="matrix(1,0,0,1,183.83981323242188,156.1761474609375)" opacity="1" style="display: block;"><g opacity="1" transform="matrix(1,0,0,1,76.94599914550781,66.7300033569336)"><path fill="url(#__lottie_element_28)" fill-opacity="1" d=" M52.56999969482422,21.56399917602539 C52.56999969482422,21.56399917602539 52.56999969482422,21.56399917602539 52.56999969482422,21.56399917602539 C50.5620002746582,22.555999755859375 48.3129997253418,23.076000213623047 46.0260009765625,23.076000213623047 C46.0260009765625,23.076000213623047 -46.0260009765625,23.076000213623047 -46.0260009765625,23.076000213623047 C-48.3120002746582,23.076000213623047 -50.5620002746582,22.555999755859375 -52.569000244140625,21.56399917602539 C-57.499000549316406,19.12700080871582 -60.28200149536133,14.206999778747559 -59.584999084472656,9.157999992370605 C-59.584999084472656,9.157999992370605 -59.534000396728516,8.789999961853027 -59.534000396728516,8.789999961853027 C-57.17599868774414,-8.309000015258789 -41.68899917602539,-21.454999923706055 -22.70400047302246,-22.441999435424805 C-14.670999526977539,-22.860000610351562 -6.241000175476074,-23.076000213623047 2.552000045776367,-23.024999618530273 C9.440999984741211,-22.985000610351562 16.099000930786133,-22.783000946044922 22.509000778198242,-22.452999114990234 C41.56700134277344,-21.469999313354492 57.167999267578125,-8.37600040435791 59.53499984741211,8.788000106811523 C59.55099868774414,8.91100025177002 59.569000244140625,9.034000396728516 59.58599853515625,9.157999992370605 C60.28200149536133,14.206999778747559 57.5,19.12700080871582 52.56999969482422,21.56399917602539z"></path></g><g opacity="1" transform="matrix(1,0,0,1,117.4800033569336,59.38199996948242)"><path fill="rgb(255,255,255)" fill-opacity="1" d=" M13.496999740600586,12.01200008392334 C12.79699993133545,12.505999565124512 7.916999816894531,2.565999984741211 -5.179999828338623,-6.052000045776367 C-9.782999992370605,-9.081999778747559 -14.329000473022461,-11.239999771118164 -14.059000015258789,-11.868000030517578 C-13.78499984741211,-12.505999565124512 -8.666000366210938,-11.319999694824219 -4.566999912261963,-9.418999671936035 C8.489999771118164,-3.3610000610351562 14.329000473022461,11.425000190734863 13.496999740600586,12.01200008392334z"></path></g></g><g transform="matrix(1,0,0,1,283.4927978515625,224.7771453857422)" opacity="1" style="display: block;"><g opacity="1" transform="matrix(1,0,0,1,0,0)"><path fill="url(#__lottie_element_32)" fill-opacity="1" d=" M17.5,0 C17.5,0 17.5,0 17.5,0 C17.5,9.658249855041504 9.658249855041504,17.5 0,17.5 C0,17.5 0,17.5 0,17.5 C-9.658249855041504,17.5 -17.5,9.658249855041504 -17.5,0 C-17.5,0 -17.5,0 -17.5,0 C-17.5,-9.658249855041504 -9.658249855041504,-17.5 0,-17.5 C0,-17.5 0,-17.5 0,-17.5 C9.658249855041504,-17.5 17.5,-9.658249855041504 17.5,0z"></path></g><g opacity="1" transform="matrix(1,0,0,1,0,0)"><path fill="rgb(255,255,255)" fill-opacity="1" d=" M12.5,0 C12.5,0 12.5,0 12.5,0 C12.5,6.898749828338623 6.898749828338623,12.5 0,12.5 C0,12.5 0,12.5 0,12.5 C-6.898749828338623,12.5 -12.5,6.898749828338623 -12.5,0 C-12.5,0 -12.5,0 -12.5,0 C-12.5,-6.898749828338623 -6.898749828338623,-12.5 0,-12.5 C0,-12.5 0,-12.5 0,-12.5 C6.898749828338623,-12.5 12.5,-6.898749828338623 12.5,0z"></path></g><g opacity="1" transform="matrix(1,0,0,1,0,0)"><path fill="rgb(4,18,28)" fill-opacity="1" d=" M10,0 C10,0 10,0 10,0 C10,5.519000053405762 5.519000053405762,10 0,10 C0,10 0,10 0,10 C-5.519000053405762,10 -10,5.519000053405762 -10,0 C-10,0 -10,0 -10,0 C-10,-5.519000053405762 -5.519000053405762,-10 0,-10 C0,-10 0,-10 0,-10 C5.519000053405762,-10 10,-5.519000053405762 10,0z"></path></g></g><g transform="matrix(1,0,0,1,236.49281311035156,224.7771453857422)" opacity="1" style="display: block;"><g opacity="1" transform="matrix(1,0,0,1,0,0)"><path fill="url(#__lottie_element_36)" fill-opacity="1" d=" M17.5,0 C17.5,0 17.5,0 17.5,0 C17.5,9.658249855041504 9.658249855041504,17.5 0,17.5 C0,17.5 0,17.5 0,17.5 C-9.658249855041504,17.5 -17.5,9.658249855041504 -17.5,0 C-17.5,0 -17.5,0 -17.5,0 C-17.5,-9.658249855041504 -9.658249855041504,-17.5 0,-17.5 C0,-17.5 0,-17.5 0,-17.5 C9.658249855041504,-17.5 17.5,-9.658249855041504 17.5,0z"></path></g><g opacity="1" transform="matrix(1,0,0,1,0,0)"><path fill="rgb(255,255,255)" fill-opacity="1" d=" M12.5,0 C12.5,0 12.5,0 12.5,0 C12.5,6.898749828338623 6.898749828338623,12.5 0,12.5 C0,12.5 0,12.5 0,12.5 C-6.898749828338623,12.5 -12.5,6.898749828338623 -12.5,0 C-12.5,0 -12.5,0 -12.5,0 C-12.5,-6.898749828338623 -6.898749828338623,-12.5 0,-12.5 C0,-12.5 0,-12.5 0,-12.5 C6.898749828338623,-12.5 12.5,-6.898749828338623 12.5,0z"></path></g><g opacity="1" transform="matrix(1,0,0,1,0,0)"><path fill="rgb(4,18,28)" fill-opacity="1" d=" M10,0 C10,0 10,0 10,0 C10,5.519000053405762 5.519000053405762,10 0,10 C0,10 0,10 0,10 C-5.519000053405762,10 -10,5.519000053405762 -10,0 C-10,0 -10,0 -10,0 C-10,-5.519000053405762 -5.519000053405762,-10 0,-10 C0,-10 0,-10 0,-10 C5.519000053405762,-10 10,-5.519000053405762 10,0z"></path></g><g opacity="1" transform="matrix(1,0,0,1,0,0)"><path fill="rgb(4,18,28)" fill-opacity="1" d=" M10,0 C10,5.5229997634887695 5.5229997634887695,10 0,10 C-5.5229997634887695,10 -10,5.5229997634887695 -10,0 C-10,-5.5229997634887695 -5.5229997634887695,-10 0,-10 C5.5229997634887695,-10 10,-5.5229997634887695 10,0z"></path></g></g><g clip-path="url(#__lottie_element_38)" transform="matrix(1,0,0,1,219.16680908203125,202.53514099121094)" opacity="1" style="display: block;"><g opacity="1" transform="matrix(1,0,0,1,20.184999465942383,19.610000610351562)"><path fill="rgb(255,255,255)" fill-opacity="1" d=" M3.877000093460083,-0.0010000000474974513 C3.877000093460083,2.140000104904175 2.1419999599456787,3.875999927520752 0.0010000000474974513,3.875999927520752 C-2.1410000324249268,3.875999927520752 -3.877000093460083,2.140000104904175 -3.877000093460083,-0.0010000000474974513 C-3.877000093460083,-2.1419999599456787 -2.1410000324249268,-3.875999927520752 0.0010000000474974513,-3.875999927520752 C2.1419999599456787,-3.875999927520752 3.877000093460083,-2.1419999599456787 3.877000093460083,-0.0010000000474974513z"></path></g><g opacity="1" transform="matrix(1,0,0,1,15.810999870300293,30.34600067138672)"><path fill="rgb(255,255,255)" fill-opacity="1" d=" M1.5470000505447388,0 C1.5470000505447388,0.8539999723434448 0.8539999723434448,1.5460000038146973 -0.0010000000474974513,1.5460000038146973 C-0.8550000190734863,1.5460000038146973 -1.5470000505447388,0.8539999723434448 -1.5470000505447388,0 C-1.5470000505447388,-0.8539999723434448 -0.8550000190734863,-1.5460000038146973 -0.0010000000474974513,-1.5460000038146973 C0.8539999723434448,-1.5460000038146973 1.5470000505447388,-0.8539999723434448 1.5470000505447388,0z"></path></g><g opacity="1" transform="matrix(1,0,0,1,11.20199966430664,28.025999069213867)"><path fill="rgb(255,255,255)" fill-opacity="1" d=" M0.7730000019073486,0 C0.7730000019073486,0.4269999861717224 0.4269999861717224,0.7730000019073486 0,0.7730000019073486 C-0.4269999861717224,0.7730000019073486 -0.7730000019073486,0.4269999861717224 -0.7730000019073486,0 C-0.7730000019073486,-0.4269999861717224 -0.4269999861717224,-0.7730000019073486 0,-0.7730000019073486 C0.4269999861717224,-0.7730000019073486 0.7730000019073486,-0.4269999861717224 0.7730000019073486,0z"></path></g><g opacity="1" transform="matrix(1,0,0,1,67.0770034790039,19.610000610351562)"><path fill="rgb(255,255,255)" fill-opacity="1" d=" M3.877000093460083,-0.0010000000474974513 C3.877000093460083,2.140000104904175 2.140000104904175,3.875999927520752 -0.0010000000474974513,3.875999927520752 C-2.1419999599456787,3.875999927520752 -3.877000093460083,2.140000104904175 -3.877000093460083,-0.0010000000474974513 C-3.877000093460083,-2.1419999599456787 -2.1419999599456787,-3.875999927520752 -0.0010000000474974513,-3.875999927520752 C2.140000104904175,-3.875999927520752 3.877000093460083,-2.1419999599456787 3.877000093460083,-0.0010000000474974513z"></path></g><g opacity="1" transform="matrix(1,0,0,1,62.702999114990234,30.34600067138672)"><path fill="rgb(255,255,255)" fill-opacity="1" d=" M1.5470000505447388,0 C1.5470000505447388,0.8539999723434448 0.8539999723434448,1.5460000038146973 -0.0010000000474974513,1.5460000038146973 C-0.8539999723434448,1.5460000038146973 -1.5470000505447388,0.8539999723434448 -1.5470000505447388,0 C-1.5470000505447388,-0.8539999723434448 -0.8539999723434448,-1.5460000038146973 -0.0010000000474974513,-1.5460000038146973 C0.8539999723434448,-1.5460000038146973 1.5470000505447388,-0.8539999723434448 1.5470000505447388,0z"></path></g><g opacity="1" transform="matrix(1,0,0,1,58.09299850463867,28.025999069213867)"><path fill="rgb(255,255,255)" fill-opacity="1" d=" M0.7739999890327454,0 C0.7739999890327454,0.4269999861717224 0.42800000309944153,0.7730000019073486 0.0010000000474974513,0.7730000019073486 C-0.4259999990463257,0.7730000019073486 -0.7739999890327454,0.4269999861717224 -0.7739999890327454,0 C-0.7739999890327454,-0.4269999861717224 -0.4259999990463257,-0.7730000019073486 0.0010000000474974513,-0.7730000019073486 C0.42800000309944153,-0.7730000019073486 0.7739999890327454,-0.4269999861717224 0.7739999890327454,0z"></path></g></g><g transform="matrix(0.9974818229675293,0.07092294842004776,-0.07092294842004776,0.9974818229675293,248.85382080078125,249.07723999023438)" opacity="1" style="display: block;"><g opacity="1" transform="matrix(1,0,0,1,15.543999671936035,4.493000030517578)"><path fill="rgb(255,255,255)" fill-opacity="1" d=" M15.194999694824219,-1.2400000095367432 C15.026000022888184,0.4230000078678131 13.640999794006348,1.7039999961853027 11.97700023651123,1.8650000095367432 C11.97700023651123,1.8650000095367432 -11.017000198364258,4.081999778747559 -11.017000198364258,4.081999778747559 C-12.680000305175781,4.243000030517578 -14.284000396728516,3.250999927520752 -14.769000053405762,1.6519999504089355 C-14.984000205993652,0.9419999718666077 -15.149999618530273,0.20600000023841858 -15.262999534606934,-0.546999990940094 C-15.293999671936035,-0.7559999823570251 -15.23900032043457,-0.9679999947547913 -15.109000205993652,-1.1339999437332153 C-14.979000091552734,-1.2999999523162842 -14.786999702453613,-1.4040000438690186 -14.57699966430664,-1.4249999523162842 C-14.57699966430664,-1.4249999523162842 14.432000160217285,-4.2230000495910645 14.432000160217285,-4.2230000495910645 C14.637999534606934,-4.243000030517578 14.843999862670898,-4.177000045776367 15.00100040435791,-4.039999961853027 C15.157999992370605,-3.9040000438690186 15.251999855041504,-3.7100000381469727 15.260000228881836,-3.502000093460083 C15.293999671936035,-2.73799991607666 15.270999908447266,-1.9819999933242798 15.194999694824219,-1.2400000095367432z"></path></g><g opacity="1" transform="matrix(1,0,0,1,15.805000305175781,10.454999923706055)"><path fill="url(#__lottie_element_43)" fill-opacity="1" d=" M14.9350004196167,-7.201000213623047 C14.201000213623047,-0.0729999989271164 8.534000396728516,5.7870001792907715 1.1299999952316284,6.49399995803833 C-6.171999931335449,7.201000213623047 -12.767000198364258,2.6730000972747803 -14.9350004196167,-4.0320000648498535 C-14.355999946594238,-2.5980000495910645 -12.850000381469727,-1.7259999513626099 -11.279000282287598,-1.8830000162124634 C-11.279000282287598,-1.8830000162124634 11.720000267028809,-4.0970001220703125 11.720000267028809,-4.0970001220703125 C13.383000373840332,-4.26200008392334 14.76099967956543,-5.538000106811523 14.9350004196167,-7.201000213623047z"></path></g></g><g transform="matrix(1,0,0,1,219.68701171875,286.7771301269531)" opacity="1" style="display: block;"><g opacity="1" transform="matrix(1,0,0,1,51.41699981689453,39.59000015258789)"><path fill="url(#__lottie_element_8)" fill-opacity="1" d=" M51.16699981689453,-21.29199981689453 C51.16699981689453,-21.08099937438965 51.16699981689453,-20.878999710083008 51.15800094604492,-20.68600082397461 C51.084999084472656,-18.756999969482422 50.63399887084961,-17.30500030517578 50.41299819946289,-16.652000427246094 C44.08399963378906,2.683000087738037 40.29100036621094,12.878000259399414 34.972999572753906,21.125999450683594 C34.05400085449219,22.549999237060547 33.09000015258789,23.917999267578125 32.051998138427734,25.260000228881836 C30.691999435424805,27.051000595092773 29.20400047302246,28.79599952697754 27.551000595092773,30.59600067138672 C23.87700080871582,34.59199905395508 18.320999145507812,36.4010009765625 16.52899932861328,37.025001525878906 C9.979999542236328,39.340999603271484 4.192999839782715,38.91699981689453 0.3449999988079071,38.95399856567383 C0.3449999988079071,38.95399856567383 -0.32600000500679016,38.95399856567383 -0.32600000500679016,38.95399856567383 C-4.184000015258789,38.91699981689453 -9.961000442504883,39.340999603271484 -16.510000228881836,37.025001525878906 C-18.301000595092773,36.4010009765625 -23.868000030517578,34.59199905395508 -27.533000946044922,30.59600067138672 C-37.637001037597656,19.601999282836914 -41.52199935913086,10.461999893188477 -50.39500045776367,-16.652000427246094 C-50.60599899291992,-17.277000427246094 -51.027000427246094,-18.628000259399414 -51.12799835205078,-20.437999725341797 C-51.15599822998047,-20.961000442504883 -51.16699981689453,-21.483999252319336 -51.138999938964844,-22.007999420166016 C-50.94599914550781,-25.25 -49.63100051879883,-28.42799949645996 -47.29800033569336,-31.329999923706055 C-43.303001403808594,-36.308998107910156 -37.130001068115234,-39.0369987487793 -30.746999740600586,-39.06399917602539 C-30.746999740600586,-39.06399917602539 0.014000000432133675,-39.19300079345703 0.014000000432133675,-39.19300079345703 C0.014000000432133675,-39.19300079345703 30.21500015258789,-39.3120002746582 30.21500015258789,-39.3120002746582 C36.736000061035156,-39.34000015258789 43.055999755859375,-36.60300064086914 47.198001861572266,-31.56100082397461 C49.20000076293945,-29.117000579833984 50.47800064086914,-26.479999542236328 50.94499969482422,-23.761999130249023 C51.0099983215332,-23.375999450683594 51.064998626708984,-22.981000900268555 51.10200119018555,-22.59600067138672 C51.138999938964844,-22.163999557495117 51.16699981689453,-21.732999801635742 51.16699981689453,-21.29199981689453z"></path></g><g opacity="1" transform="matrix(1,0,0,1,25.850000381469727,8.920999526977539)"><path fill="url(#__lottie_element_9)" fill-opacity="1" d=" M25.576000213623047,-8.520000457763672 C25.576000213623047,-8.520000457763672 -5.184999942779541,-8.390999794006348 -5.184999942779541,-8.390999794006348 C-11.569000244140625,-8.36400032043457 -17.740999221801758,-5.635000228881836 -21.73699951171875,-0.6579999923706055 C-24.06999969482422,2.246000051498413 -25.382999420166016,5.422999858856201 -25.576000213623047,8.666000366210938 C-25.420000076293945,5.340000152587891 -24.051000595092773,2.0799999237060547 -21.617000579833984,-0.8870000243186951 C-17.483999252319336,-5.929999828338623 -11.154999732971191,-8.666000366210938 -4.633999824523926,-8.638999938964844 C-4.633999824523926,-8.638999938964844 25.576000213623047,-8.520000457763672 25.576000213623047,-8.520000457763672z"></path></g></g><g transform="matrix(1,0,0,1,294.0140075683594,292.483154296875)" opacity="1" style="display: block;"><g opacity="1" transform="matrix(1,0,0,1,19.393999099731445,29.05699920654297)"><path fill="url(#__lottie_element_47)" fill-opacity="1" d=" M-11.720000267028809,10.956999778747559 C-12.168999671936035,-12.904000282287598 -15.39900016784668,-17.621999740600586 -10.63700008392334,-23.298999786376953 C-10.09000015258789,-23.951000213623047 -7.296000003814697,-27.280000686645508 -2.703000068664551,-28.1299991607666 C0.9570000171661377,-28.80699920654297 4.2779998779296875,-27.634000778198242 5.848999977111816,-26.743000030517578 C15.39799976348877,-21.333999633789062 12.564000129699707,2.117000102996826 6.275000095367432,16.92099952697754 C4.9039998054504395,20.148000717163086 1.225000023841858,28.805999755859375 -3.259000062942505,28.600000381469727 C-5.0960001945495605,28.514999389648438 -6.449999809265137,26.97100067138672 -7.4019999504089355,25.85700035095215 C-11.607000350952148,20.933000564575195 -11.652999877929688,14.555000305175781 -11.720000267028809,10.956999778747559z"></path></g><g opacity="1" transform="matrix(1,0,0,1,6.156000137329102,32.474998474121094)"><path fill="url(#__lottie_element_48)" fill-opacity="1" d=" M5.9070000648498535,22.535999298095703 C4.98799991607666,23.959999084472656 4.0229997634887695,25.327999114990234 2.984999895095825,26.670000076293945 C2.6540000438690186,26.329999923706055 2.359999895095825,25.989999771118164 2.0940001010894775,25.67799949645996 C-2.11299991607666,20.7549991607666 -2.1579999923706055,14.380000114440918 -2.2230000495910645,10.779000282287598 C-2.6730000972747803,-13.083999633789062 -5.9070000648498535,-17.79599952697754 -1.1390000581741333,-23.472999572753906 C-0.7900000214576721,-23.895000457763672 0.4869999885559082,-25.410999298095703 2.562000036239624,-26.670000076293945 C-2.140000104904175,-21.011999130249023 1.065000057220459,-16.253000259399414 1.5149999856948853,7.5370001792907715 C1.5800000429153442,11.137999534606934 1.6349999904632568,17.511999130249023 5.833000183105469,22.444000244140625 C5.860000133514404,22.472000122070312 5.888000011444092,22.5 5.9070000648498535,22.535999298095703z"></path></g><g opacity="1" transform="matrix(1,0,0,1,25.7189998626709,14.392999649047852)"><path fill="rgb(255,255,255)" fill-opacity="1" d=" M-0.19099999964237213,5.751999855041504 C-0.32600000500679016,3.187999963760376 -0.8069999814033508,1.3020000457763672 -1.7690000534057617,-2.4700000286102295 C-3.0269999504089355,-7.4029998779296875 -4.605000019073486,-9.809000015258789 -3.5799999237060547,-10.76099967956543 C-2.9130001068115234,-11.380999565124512 -1.5980000495910645,-10.961999893188477 -1.3009999990463257,-10.866999626159668 C3.2079999446868896,-9.428999900817871 4.605000019073486,-0.9670000076293945 4.4120001792907715,4.328000068664551 C4.291999816894531,7.570000171661377 3.5,11.194999694824219 2.312999963760376,11.355999946594238 C2.125,11.380999565124512 1.659999966621399,11.355999946594238 1.3270000219345093,11.062000274658203 C0.0010000000474974513,9.890000343322754 -0.08799999952316284,7.699999809265137 -0.19099999964237213,5.751999855041504z"></path></g><g opacity="1" transform="matrix(1,0,0,1,27.68899917602539,29.19300079345703)"><path fill="rgb(255,255,255)" fill-opacity="1" d=" M0.9359999895095825,-0.0010000000474974513 C0.9359999895095825,0.515999972820282 0.5170000195503235,0.9369999766349792 0,0.9369999766349792 C-0.5170000195503235,0.9369999766349792 -0.9359999895095825,0.515999972820282 -0.9359999895095825,-0.0010000000474974513 C-0.9359999895095825,-0.5180000066757202 -0.5170000195503235,-0.9369999766349792 0,-0.9369999766349792 C0.5170000195503235,-0.9369999766349792 0.9359999895095825,-0.5180000066757202 0.9359999895095825,-0.0010000000474974513z"></path></g></g><g transform="matrix(1.0055716037750244,0,0,1.0055716037750244,220.3986053466797,368.3550720214844)" opacity="1" style="display: block;"><g opacity="1" transform="matrix(2.450000047683716,0,0,1,49.077999114990234,20.033000946044922)"><path fill="url(#__lottie_element_52)" fill-opacity="1" d=" M0,-20 C11.038000106811523,-20 20,-11.038000106811523 20,0 C20,11.038000106811523 11.038000106811523,20 0,20 C-11.038000106811523,20 -20,11.038000106811523 -20,0 C-20,-11.038000106811523 -11.038000106811523,-20 0,-20z"></path></g></g><g transform="matrix(1,0,0,1,18.783004760742188,119.0459976196289)" opacity="1" style="display: block;"><g opacity="1" transform="matrix(1,0,0,1,128.53599548339844,98.3280029296875)"><path fill="url(#__lottie_element_56)" fill-opacity="1" d=" M14.152000427246094,-17.277000427246094 C14.152000427246094,-17.277000427246094 16.226999282836914,10.680000305175781 27.861000061035156,17.277000427246094 C27.861000061035156,17.277000427246094 -9.491999626159668,10.82699966430664 -18.677000045776367,-3.1630001068115234 C-27.86199951171875,-17.152000427246094 14.152000427246094,-17.277000427246094 14.152000427246094,-17.277000427246094z"></path></g><g opacity="1" transform="matrix(1,0,0,1,81.23699951171875,47.707000732421875)"><path fill="url(#__lottie_element_57)" fill-opacity="1" d=" M33.529998779296875,47.457000732421875 C33.529998779296875,47.457000732421875 -33.529998779296875,47.457000732421875 -33.529998779296875,47.457000732421875 C-59.63199996948242,47.457000732421875 -80.98699951171875,26.101999282836914 -80.98699951171875,0 C-80.98699951171875,-26.10099983215332 -59.63199996948242,-47.457000732421875 -33.529998779296875,-47.457000732421875 C-33.529998779296875,-47.457000732421875 33.529998779296875,-47.457000732421875 33.529998779296875,-47.457000732421875 C59.63100051879883,-47.457000732421875 80.98699951171875,-26.10099983215332 80.98699951171875,0 C80.98699951171875,26.101999282836914 59.63100051879883,47.457000732421875 33.529998779296875,47.457000732421875z"></path></g><g opacity="1" transform="matrix(1,0,0,1,37.316001892089844,50.49399948120117)"><path fill="url(#__lottie_element_58)" fill-opacity="1" d=" M13.84000015258789,15.373000144958496 C13.864999771118164,15.918999671936035 12.255999565124512,16.267000198364258 9.01200008392334,16.415000915527344 C5.76800012588501,16.565000534057617 4.133999824523926,16.367000579833984 4.109000205993652,15.819999694824219 C4.109000205993652,15.819999694824219 3.5999999046325684,4.741000175476074 3.5999999046325684,4.741000175476074 C3.5999999046325684,4.741000175476074 -3.1440000534057617,5.051000118255615 -3.1440000534057617,5.051000118255615 C-3.1440000534057617,5.051000118255615 -2.634999990463257,16.1299991607666 -2.634999990463257,16.1299991607666 C-2.609999895095825,16.677000045776367 -4.21999979019165,17.02400016784668 -7.4629998207092285,17.17300033569336 C-10.706999778747559,17.32200050354004 -12.340999603271484,17.124000549316406 -12.366000175476074,16.577999114990234 C-12.366000175476074,16.577999114990234 -13.833999633789062,-15.361000061035156 -13.833999633789062,-15.361000061035156 C-13.864999771118164,-16.03499984741211 -12.258999824523926,-16.44700050354004 -9.015000343322754,-16.59600067138672 C-5.771999835968018,-16.7450008392334 -4.133999824523926,-16.48200035095215 -4.103000164031982,-15.807999610900879 C-4.103000164031982,-15.807999610900879 -3.5829999446868896,-4.486999988555908 -3.5829999446868896,-4.486999988555908 C-3.5829999446868896,-4.486999988555908 3.1610000133514404,-4.796999931335449 3.1610000133514404,-4.796999931335449 C3.1610000133514404,-4.796999931335449 2.6459999084472656,-16.02199935913086 2.6459999084472656,-16.02199935913086 C2.625,-16.47100067138672 3.4130001068115234,-16.829999923706055 5.010000228881836,-17.09600067138672 C5.841000080108643,-17.197999954223633 6.658999919891357,-17.26799964904785 7.461999893188477,-17.30500030517578 C7.461999893188477,-17.30500030517578 9.92300033569336,-17.32200050354004 9.92300033569336,-17.32200050354004 C11.538000106811523,-17.202999114990234 12.355999946594238,-16.91900062561035 12.376999855041504,-16.4689998626709 C12.376999855041504,-16.4689998626709 13.84000015258789,15.373000144958496 13.84000015258789,15.373000144958496z"></path></g><g opacity="1" transform="matrix(1,0,0,1,64.84300231933594,53.95800018310547)"><path fill="url(#__lottie_element_59)" fill-opacity="1" d=" M9.07699966430664,10.380000114440918 C7.107999801635742,11.661999702453613 4.534999847412109,12.37399959564209 1.3550000190734863,12.520999908447266 C-1.8240000009536743,12.666999816894531 -4.557000160217285,11.706999778747559 -6.840000152587891,9.638999938964844 C-9.12399959564209,7.572000026702881 -10.352999687194824,4.619999885559082 -10.529000282287598,0.7820000052452087 C-10.704999923706055,-3.055000066757202 -9.79699993133545,-6.195000171661377 -7.801000118255615,-8.63700008392334 C-5.804999828338623,-11.07699966430664 -3.2009999752044678,-12.371999740600586 0.009999999776482582,-12.520000457763672 C3.2209999561309814,-12.666999816894531 5.739999771118164,-11.963000297546387 7.565999984741211,-10.406000137329102 C9.392000198364258,-8.848999977111816 10.359000205993652,-6.896999835968018 10.467000007629395,-4.552999973297119 C10.706000328063965,0.6499999761581421 7.839000225067139,3.388000011444092 1.8660000562667847,3.6630001068115234 C1.8660000562667847,3.6630001068115234 -1.4600000381469727,3.815999984741211 -1.4600000381469727,3.815999984741211 C-1.4149999618530273,4.7789998054504395 -1.1200000047683716,5.434000015258789 -0.5730000138282776,5.7779998779296875 C-0.02500000037252903,6.123000144958496 0.7620000243186951,6.2729997634887695 1.7899999618530273,6.22599983215332 C4.038000106811523,6.122000217437744 6.150000095367432,5.511000156402588 8.12600040435791,4.389999866485596 C8.156000137329102,4.35699987411499 8.310999870300293,4.573999881744385 8.59000015258789,5.044000148773193 C9.423999786376953,6.389999866485596 9.86400032043457,7.5370001792907715 9.906999588012695,8.484000205993652 C9.951000213623047,9.430999755859375 9.67300033569336,10.064000129699707 9.07699966430664,10.380000114440918z M2.4159998893737793,-3.2660000324249268 C2.3540000915527344,-4.614999771118164 1.6649999618530273,-5.257999897003174 0.3479999899864197,-5.197000026702881 C-0.2630000114440918,-5.169000148773193 -0.7770000100135803,-4.960000038146973 -1.1929999589920044,-4.572000026702881 C-1.6100000143051147,-4.182000160217285 -1.8020000457763672,-3.634999990463257 -1.7690000534057617,-2.928999900817871 C-1.7690000534057617,-2.928999900817871 -1.7009999752044678,-1.434000015258789 -1.7009999752044678,-1.434000015258789 C-1.7009999752044678,-1.434000015258789 0.8999999761581421,-1.5540000200271606 0.8999999761581421,-1.5540000200271606 C1.9600000381469727,-1.6019999980926514 2.4660000801086426,-2.1740000247955322 2.4159998893737793,-3.2660000324249268z"></path></g><g opacity="1" transform="matrix(1,0,0,1,82.79000091552734,48.323001861572266)"><path fill="url(#__lottie_element_60)" fill-opacity="1" d=" M5.140999794006348,16.288000106811523 C5.1539998054504395,16.57699966430664 3.5230000019073486,16.797000885009766 0.24699999392032623,16.94700050354004 C-2.3239998817443848,17.033000946044922 -3.614000082015991,16.964000701904297 -3.624000072479248,16.73900032043457 C-3.624000072479248,16.73900032043457 -5.131999969482422,-16.06599998474121 -5.131999969482422,-16.06599998474121 C-5.1539998054504395,-16.54800033569336 -3.6080000400543213,-16.860000610351562 -0.49300000071525574,-17.003999710083008 C2.240999937057495,-17.033000946044922 3.614000082015991,-16.934999465942383 3.624000072479248,-16.709999084472656 C3.624000072479248,-16.709999084472656 5.140999794006348,16.288000106811523 5.140999794006348,16.288000106811523z"></path></g><g opacity="1" transform="matrix(1,0,0,1,95.89299774169922,47.72100067138672)"><path fill="url(#__lottie_element_61)" fill-opacity="1" d=" M5.140999794006348,16.288000106811523 C5.1539998054504395,16.57699966430664 3.5230000019073486,16.79599952697754 0.24699999392032623,16.94700050354004 C-2.3239998817443848,17.033000946044922 -3.614000082015991,16.964000701904297 -3.624000072479248,16.73900032043457 C-3.624000072479248,16.73900032043457 -5.131999969482422,-16.066999435424805 -5.131999969482422,-16.066999435424805 C-5.1539998054504395,-16.54800033569336 -3.6089999675750732,-16.861000061035156 -0.49300000071525574,-17.003999710083008 C2.240999937057495,-17.033000946044922 3.614000082015991,-16.934999465942383 3.624000072479248,-16.711000442504883 C3.624000072479248,-16.711000442504883 5.140999794006348,16.288000106811523 5.140999794006348,16.288000106811523z"></path></g><g opacity="1" transform="matrix(1,0,0,1,115.02200317382812,51.68299865722656)"><path fill="url(#__lottie_element_62)" fill-opacity="1" d=" M-7.670000076293945,9.574000358581543 C-9.779000282287598,7.449999809265137 -10.923999786376953,4.428999900817871 -11.104000091552734,0.5109999775886536 C-11.284000396728516,-3.4070000648498535 -10.420999526977539,-6.520999908447266 -8.515999794006348,-8.829000473022461 C-6.611000061035156,-11.13700008392334 -3.9560000896453857,-12.369000434875488 -0.5519999861717224,-12.524999618530273 C2.8519999980926514,-12.682000160217285 5.60099983215332,-11.697999954223633 7.693999767303467,-9.574000358581543 C9.786999702453613,-7.448999881744385 10.923999786376953,-4.427999973297119 11.104000091552734,-0.5099999904632568 C11.284000396728516,3.4089999198913574 10.428999900817871,6.520999908447266 8.539999961853027,8.829000473022461 C6.651000022888184,11.13599967956543 4.002999782562256,12.368000030517578 0.6000000238418579,12.52400016784668 C-2.803999900817871,12.680999755859375 -5.560999870300293,11.696999549865723 -7.670000076293945,9.574000358581543z M-0.15800000727176666,-4.48199987411499 C-1.972000002861023,-4.39900016784668 -2.812000036239624,-2.878999948501587 -2.6760001182556152,0.07500000298023224 C-2.5399999618530273,3.0299999713897705 -1.565000057220459,4.465000152587891 0.25,4.381999969482422 C2.063999891281128,4.298999786376953 2.9040000438690186,2.7799999713897705 2.7669999599456787,-0.17499999701976776 C2.631999969482422,-3.128999948501587 1.656000018119812,-4.565000057220459 -0.15800000727176666,-4.48199987411499z"></path></g><g opacity="1" transform="matrix(1,0,0,1,133.81900024414062,45.82500076293945)"><path fill="url(#__lottie_element_63)" fill-opacity="1" d=" M-4.052999973297119,10.008000373840332 C-4.064000129699707,9.782999992370605 -2.5840001106262207,9.602999687194824 0.3869999945163727,9.467000007629395 C3.3570001125335693,9.329999923706055 4.8470001220703125,9.357000350952148 4.855999946594238,9.550000190734863 C4.855999946594238,9.550000190734863 5.175000190734863,16.488000869750977 5.175000190734863,16.488000869750977 C5.190000057220459,16.80900001525879 3.7109999656677246,17.038000106811523 0.7409999966621399,17.173999786376953 C-2.2290000915527344,17.31100082397461 -3.7190001010894775,17.281999588012695 -3.7279999256134033,17.089000701904297 C-3.7279999256134033,17.089000701904297 -4.052999973297119,10.008000373840332 -4.052999973297119,10.008000373840332z M3.76200008392334,6.751999855041504 C3.7709999084472656,6.945000171661377 2.627000093460083,7.09499979019165 0.3310000002384186,7.199999809265137 C-1.965999960899353,7.306000232696533 -3.117000102996826,7.2789998054504395 -3.124000072479248,7.118000030517578 C-3.124000072479248,7.118000030517578 -5.178999900817871,-16.58799934387207 -5.178999900817871,-16.58799934387207 C-5.190999984741211,-16.844999313354492 -3.7279999256134033,-17.040000915527344 -0.7889999747276306,-17.174999237060547 C2.1489999294281006,-17.309999465942383 3.624000072479248,-17.266000747680664 3.634000062942505,-17.041000366210938 C3.634000062942505,-17.041000366210938 3.76200008392334,6.751999855041504 3.76200008392334,6.751999855041504z"></path></g><g opacity="1" transform="matrix(1,0,0,1,135.62600708007812,38.909000396728516)"><path fill="rgb(255,255,255)" fill-opacity="1" d=" M0.7300000190734863,9.067999839782715 C0.7300000190734863,9.067999839782715 -1.1690000295639038,-8.130999565124512 -0.22499999403953552,-8.600000381469727 C0.718999981880188,-9.069000244140625 1.1679999828338623,0.32600000500679016 0.7300000190734863,9.067999839782715z"></path></g><g opacity="1" transform="matrix(1,0,0,1,137.2050018310547,56.66299819946289)"><path fill="rgb(255,255,255)" fill-opacity="1" d=" M1.034000039100647,0 C1.034000039100647,0.5709999799728394 0.5699999928474426,1.0329999923706055 -0.0010000000474974513,1.0329999923706055 C-0.5709999799728394,1.0329999923706055 -1.0329999923706055,0.5709999799728394 -1.0329999923706055,0 C-1.0329999923706055,-0.5709999799728394 -0.5709999799728394,-1.0329999923706055 -0.0010000000474974513,-1.0329999923706055 C0.5699999928474426,-1.0329999923706055 1.034000039100647,-0.5709999799728394 1.034000039100647,0z"></path></g><g opacity="1" transform="matrix(1,0,0,1,120.64600372314453,44.9119987487793)"><path fill="rgb(255,255,255)" fill-opacity="1" d=" M4.060999870300293,4.2179999351501465 C4.066999912261963,3.259000062942505 3.953000068664551,0.5249999761581421 1.9670000076293945,-1.690999984741211 C0.25999999046325684,-3.5959999561309814 -2.0230000019073486,-4.2179999351501465 -3.062000036239624,-4.0970001220703125 C-3.259999990463257,-4.073999881744385 -3.931999921798706,-3.9579999446868896 -3.9760000705718994,-3.677999973297119 C-4.066999912261963,-3.0959999561309814 -1.3209999799728394,-2.690000057220459 0.7310000061988831,-1.1510000228881836 C1.878999948501587,-0.29100000858306885 3.242000102996826,1.246999979019165 4.060999870300293,4.2179999351501465z"></path></g><g opacity="1" transform="matrix(1,0,0,1,98.50199890136719,44.44300079345703)"><path fill="rgb(255,255,255)" fill-opacity="1" d=" M-0.515999972820282,-13.123000144958496 C0.5389999747276306,-13.133000373840332 0.9399999976158142,6.1539998054504395 0.6330000162124634,9.644000053405762 C0.3269999921321869,13.133000373840332 -0.9399999976158142,-13.119000434875488 -0.515999972820282,-13.123000144958496z"></path></g><g opacity="1" transform="matrix(1,0,0,1,70.5469970703125,45.066001892089844)"><path fill="rgb(255,255,255)" fill-opacity="1" d=" M3.578000068664551,2.7679998874664307 C3.115999937057495,0.1599999964237213 0.13899999856948853,-2.7679998874664307 -1.718999981880188,-2.309999942779541 C-3.578000068664551,-1.8519999980926514 0.4830000102519989,-0.44200000166893005 1.937999963760376,0.8159999847412109 C3.3940000534057617,2.075000047683716 3.578000068664551,2.7679998874664307 3.578000068664551,2.7679998874664307z"></path></g><g opacity="1" transform="matrix(1,0,0,1,59.23899841308594,62.02299880981445)"><path fill="rgb(255,255,255)" fill-opacity="1" d=" M-1.4279999732971191,0.6660000085830688 C0.7310000061988831,3.059999942779541 3.815000057220459,3.5209999084472656 3.8580000400543213,3.4189999103546143 C3.9040000438690186,3.312000036239624 0.4819999933242798,2.8540000915527344 -1.319000005722046,0.10599999874830246 C-2.1659998893737793,-1.187000036239624 -3.005000114440918,-3.5209999084472656 -3.562999963760376,-3.5209999084472656 C-3.5759999752044678,-3.5209999084472656 -3.5980000495910645,-3.5209999084472656 -3.618000030517578,-3.50600004196167 C-3.9040000438690186,-3.2980000972747803 -2.809999942779541,-0.8669999837875366 -1.4279999732971191,0.6660000085830688z"></path></g><g opacity="1" transform="matrix(1,0,0,1,47.18600082397461,48.395999908447266)"><path fill="rgb(255,255,255)" fill-opacity="1" d=" M2.7179999351501465,13.805999755859375 C2.0299999713897705,14.751999855041504 1.937000036239624,-9.588000297546387 1.496999979019165,-11.967000007629395 C1.496999979019165,-11.967000007629395 1.496999979019165,-12.12399959564209 1.496999979019165,-12.12399959564209 C1.4880000352859497,-12.279999732971191 1.4780000448226929,-12.590999603271484 1.468999981880188,-13.215999603271484 C1.4670000076293945,-13.354000091552734 1.340000033378601,-13.831000328063965 1.2289999723434448,-13.932000160217285 C0.3269999921321869,-14.748000144958496 -3.63700008392334,-14.336999893188477 -1.9479999542236328,-14.557000160217285 C-0.45500001311302185,-14.751999855041504 1.2680000066757202,-14.607000350952148 1.7070000171661377,-14.447999954223633 C1.8990000486373901,-14.378999710083008 1.909999966621399,-14.005999565124512 1.9559999704360962,-13.868000030517578 C2.819000005722046,-9.045999526977539 3.63700008392334,12.555999755859375 2.7179999351501465,13.805999755859375z"></path></g><g opacity="1" transform="matrix(1,0,0,1,134.11500549316406,20.114999771118164)"><path fill="rgb(255,255,255)" fill-opacity="1" d=" M22.152999877929688,15.829000473022461 C21.099000930786133,16.61199951171875 13.758999824523926,2.4030001163482666 -4.570000171661377,-7.334000110626221 C-14.881999969482422,-12.812999725341797 -23.29400062561035,-14.019000053405762 -23.075000762939453,-15.013999938964844 C-22.816999435424805,-16.18199920654297 -10.795999526977539,-16.61199951171875 0.10199999809265137,-11.15999984741211 C16.469999313354492,-2.9709999561309814 23.29400062561035,14.982000350952148 22.152999877929688,15.829000473022461z"></path></g><g opacity="1" transform="matrix(1,0,0,1,157.64500427246094,41.41899871826172)"><path fill="rgb(255,255,255)" fill-opacity="1" d=" M1.2549999952316284,0 C1.2549999952316284,0.6930000185966492 0.6919999718666077,1.2549999952316284 0,1.2549999952316284 C-0.6940000057220459,1.2549999952316284 -1.2549999952316284,0.6930000185966492 -1.2549999952316284,0 C-1.2549999952316284,-0.6930000185966492 -0.6940000057220459,-1.2549999952316284 0,-1.2549999952316284 C0.6919999718666077,-1.2549999952316284 1.2549999952316284,-0.6930000185966492 1.2549999952316284,0z"></path></g><g opacity="1" transform="matrix(1,0,0,1,59.422000885009766,5.314000129699707)"><path fill="rgb(255,255,255)" fill-opacity="1" d=" M8.803000450134277,0 C8.803000450134277,1.1039999723434448 4.861999988555908,2 -0.0010000000474974513,2 C-4.86299991607666,2 -8.803000450134277,1.1039999723434448 -8.803000450134277,0 C-8.803000450134277,-1.1039999723434448 -4.86299991607666,-2 -0.0010000000474974513,-2 C4.861999988555908,-2 8.803000450134277,-1.1039999723434448 8.803000450134277,0z"></path></g><g opacity="1" transform="matrix(1,0,0,1,76.61199951171875,5.314000129699707)"><path fill="rgb(255,255,255)" fill-opacity="1" d=" M2.384999990463257,0 C2.384999990463257,0.5979999899864197 1.3179999589920044,1.0829999446868896 0.0010000000474974513,1.0829999446868896 C-1.315999984741211,1.0829999446868896 -2.384999990463257,0.5979999899864197 -2.384999990463257,0 C-2.384999990463257,-0.5979999899864197 -1.315999984741211,-1.0829999446868896 0.0010000000474974513,-1.0829999446868896 C1.3179999589920044,-1.0829999446868896 2.384999990463257,-0.5979999899864197 2.384999990463257,0z"></path></g><g opacity="1" transform="matrix(1,0,0,1,32.46699905395508,40.641998291015625)"><path fill="rgb(255,255,255)" fill-opacity="1" d=" M0.37400001287460327,-0.020999999716877937 C0.546999990940094,3.0460000038146973 0.5210000276565552,5.541999816894531 0.3140000104904175,5.553999900817871 C0.10700000077486038,5.565000057220459 -0.20100000500679016,3.0880000591278076 -0.37400001287460327,0.020999999716877937 C-0.546999990940094,-3.0460000038146973 -0.5210000276565552,-5.541999816894531 -0.3140000104904175,-5.553999900817871 C-0.10700000077486038,-5.565000057220459 0.20100000500679016,-3.0880000591278076 0.37400001287460327,-0.020999999716877937z"></path></g><g opacity="1" transform="matrix(1,0,0,1,144.052001953125,99.0270004272461)"><path fill="rgb(255,255,255)" fill-opacity="1" d=" M0.8320000171661377,2.260999917984009 C2.263000011444092,6.2789998054504395 3.760999917984009,8.626999855041504 3.4149999618530273,8.843999862670898 C3.0260000228881836,9.08899974822998 0.4440000057220459,6.5320000648498535 -1.0850000381469727,3.177999973297119 C-3.759999990463257,-2.693000078201294 -2.322000026702881,-9.053000450134277 -1.7510000467300415,-9.071999549865723 C-1.2710000276565552,-9.08899974822998 -1.6150000095367432,-4.611999988555908 0.8320000171661377,2.260999917984009z"></path></g></g></g></svg>